<svg width="16" height="16" viewBox="0 0 16 16" fill="none" xmlns="http://www.w3.org/2000/svg">
<circle cx="8" cy="8" r="8" fill="#CC0000"/>
<path d="M8.76389 9.08944H7.23611L7 4H9L8.76389 9.08944ZM7.01852 10.9724C7.01852 10.646 7.10185 10.3932 7.26852 10.2139C7.43519 10.0309 7.67747 9.93948 7.99537 9.93948C8.31019 9.93948 8.54784 10.0309 8.70833 10.2139C8.87191 10.3932 8.9537 10.646 8.9537 10.9724C8.9537 11.2952 8.86883 11.5481 8.69907 11.731C8.53241 11.9103 8.29784 12 7.99537 12C7.68981 12 7.45062 11.9103 7.27778 11.731C7.10494 11.5481 7.01852 11.2952 7.01852 10.9724Z" fill="white"/>
</svg>
