<svg width="22" height="20" viewBox="0 0 22 20" fill="none" xmlns="http://www.w3.org/2000/svg">
<path d="M19.3845 2.71394C18.3373 1.61435 16.9508 1.01336 15.4711 1.01336C13.9913 1.01336 12.6006 1.6188 11.5533 2.71839L11.0064 3.29267L10.4509 2.70948C9.40365 1.60989 8.0087 1 6.52895 1C5.05344 1 3.66273 1.60544 2.61969 2.70058C1.57242 3.80017 0.995783 5.26036 1.00002 6.81403C1.00002 8.3677 1.5809 9.82343 2.62817 10.923L10.5908 19.2835C10.7011 19.3992 10.8495 19.4615 10.9936 19.4615C11.1378 19.4615 11.2862 19.4037 11.3964 19.2879L19.3761 10.9408C20.4233 9.84124 21 8.38105 21 6.82738C21.0042 5.27371 20.4318 3.81353 19.3845 2.71394ZM18.5705 10.0905L10.9936 18.0147L3.43377 10.0772C2.60273 9.20463 2.14482 8.04717 2.14482 6.81403C2.14482 5.58088 2.59849 4.42342 3.42953 3.55532C4.25632 2.68723 5.35872 2.20643 6.52895 2.20643C7.70342 2.20643 8.81005 2.68723 9.64109 3.55977L10.5993 4.56588C10.824 4.80182 11.1844 4.80182 11.4092 4.56588L12.3589 3.56868C13.1899 2.69613 14.2966 2.21534 15.4668 2.21534C16.637 2.21534 17.7394 2.69613 18.5705 3.56423C19.4015 4.43678 19.8552 5.59424 19.8552 6.82738C19.8594 8.06053 19.4015 9.21799 18.5705 10.0905Z" fill="#005CC2"/>
<path d="M11.5533 2.71839L11.3723 2.54597L11.5533 2.71839ZM11.0064 3.29267L10.8253 3.46509L11.0064 3.65516L11.1874 3.46509L11.0064 3.29267ZM10.4509 2.70948L10.2699 2.8819L10.4509 2.70948ZM1.00002 6.81403H1.25002L1.25002 6.81334L1.00002 6.81403ZM2.62817 10.923L2.44714 11.0954L2.62817 10.923ZM10.5908 19.2835L10.7719 19.111L10.5908 19.2835ZM11.3964 19.2879L11.2157 19.1152L11.2154 19.1155L11.3964 19.2879ZM19.3761 10.9408L19.5568 11.1136L19.5571 11.1132L19.3761 10.9408ZM21 6.82738L20.75 6.8267V6.82738H21ZM18.5705 10.0905L18.7512 10.2633L18.7515 10.263L18.5705 10.0905ZM10.9936 18.0147L10.8126 18.1871L10.9933 18.3768L11.1743 18.1875L10.9936 18.0147ZM3.43377 10.0772L3.25274 10.2496L3.43377 10.0772ZM3.42953 3.55532L3.61012 3.7282L3.61056 3.72774L3.42953 3.55532ZM9.64109 3.55977L9.46006 3.73219L9.64109 3.55977ZM10.5993 4.56588L10.7804 4.39346L10.5993 4.56588ZM11.4092 4.56588L11.5902 4.73829L11.4092 4.56588ZM12.3589 3.56868L12.1779 3.39626V3.39626L12.3589 3.56868ZM18.5705 3.56423L18.7515 3.39181L18.7511 3.39135L18.5705 3.56423ZM19.8552 6.82738H19.6052L19.6052 6.82824L19.8552 6.82738ZM19.5656 2.54152C18.4723 1.39366 17.021 0.763355 15.4711 0.763355V1.26336C16.8807 1.26336 18.2022 1.83504 19.2035 2.88635L19.5656 2.54152ZM15.4711 0.763355C13.9209 0.763355 12.4653 1.39833 11.3723 2.54597L11.7343 2.89081C12.7359 1.83927 14.0617 1.26336 15.4711 1.26336V0.763355ZM11.3723 2.54597L10.8253 3.12025L11.1874 3.46509L11.7343 2.89081L11.3723 2.54597ZM11.1874 3.12025L10.632 2.53707L10.2699 2.8819L10.8253 3.46509L11.1874 3.12025ZM10.632 2.53707C9.53912 1.38964 8.07944 0.75 6.52895 0.75V1.25C7.93796 1.25 9.26818 1.83015 10.2699 2.8819L10.632 2.53707ZM6.52895 0.75C4.98303 0.75 3.52749 1.38494 2.43866 2.52816L2.80072 2.873C3.79796 1.82595 5.12384 1.25 6.52895 1.25V0.75ZM2.43866 2.52816C1.34602 3.67539 0.745612 5.19797 0.750024 6.81471L1.25002 6.81334C1.24595 5.32274 1.79882 3.92495 2.80072 2.873L2.43866 2.52816ZM0.750023 6.81403C0.750023 8.43095 1.35495 9.94868 2.44714 11.0954L2.8092 10.7506C1.80685 9.69818 1.25002 8.30445 1.25002 6.81403H0.750023ZM2.44714 11.0954L10.4098 19.4559L10.7719 19.111L2.8092 10.7506L2.44714 11.0954ZM10.4098 19.4559C10.5656 19.6195 10.7788 19.7115 10.9936 19.7115V19.2115C10.9202 19.2115 10.8365 19.1789 10.7719 19.111L10.4098 19.4559ZM10.9936 19.7115C11.2036 19.7115 11.4182 19.6275 11.5775 19.4603L11.2154 19.1155C11.1542 19.1798 11.072 19.2115 10.9936 19.2115V19.7115ZM11.5771 19.4607L19.5568 11.1136L19.1954 10.7681L11.2157 19.1152L11.5771 19.4607ZM19.5571 11.1132C20.6498 9.96601 21.25 8.44363 21.25 6.82738H20.75C20.75 8.31848 20.1969 9.71647 19.195 10.7684L19.5571 11.1132ZM21.25 6.82806C21.2544 5.2118 20.6585 3.68908 19.5656 2.54152L19.2035 2.88635C20.2051 3.93797 20.754 5.33562 20.75 6.8267L21.25 6.82806ZM18.3898 9.91777L10.8129 17.8419L11.1743 18.1875L18.7512 10.2633L18.3898 9.91777ZM11.1747 17.8423L3.6148 9.90477L3.25274 10.2496L10.8126 18.1871L11.1747 17.8423ZM3.6148 9.90477C2.82907 9.07978 2.39482 7.98449 2.39482 6.81403H1.89482C1.89482 8.10986 2.3764 9.32948 3.25274 10.2496L3.6148 9.90477ZM2.39482 6.81403C2.39482 5.64284 2.8253 4.54802 3.61012 3.7282L3.24894 3.38244C2.37169 4.29882 1.89482 5.51892 1.89482 6.81403H2.39482ZM3.61056 3.72774C4.39163 2.90765 5.42922 2.45643 6.52895 2.45643V1.95643C5.28821 1.95643 4.12101 2.4668 3.2485 3.38291L3.61056 3.72774ZM6.52895 2.45643C7.63312 2.45643 8.67489 2.90781 9.46006 3.73219L9.82212 3.38736C8.94521 2.46665 7.77372 1.95643 6.52895 1.95643V2.45643ZM9.46006 3.73219L10.4183 4.73829L10.7804 4.39346L9.82212 3.38736L9.46006 3.73219ZM10.4183 4.73829C10.7415 5.07768 11.2669 5.07768 11.5902 4.73829L11.2281 4.39346C11.1019 4.52596 10.9066 4.52596 10.7804 4.39346L10.4183 4.73829ZM11.5902 4.73829L12.5399 3.7411L12.1779 3.39626L11.2281 4.39346L11.5902 4.73829ZM12.5399 3.7411C13.3252 2.91661 14.367 2.46534 15.4668 2.46534V1.96534C14.2261 1.96534 13.0547 2.47565 12.1779 3.39626L12.5399 3.7411ZM15.4668 2.46534C16.5664 2.46534 17.6043 2.9165 18.3899 3.73711L18.7511 3.39135C17.8746 2.47576 16.7077 1.96534 15.4668 1.96534V2.46534ZM18.3894 3.73664C19.1748 4.5612 19.6052 5.65632 19.6052 6.82738H20.1052C20.1052 5.53216 19.6283 4.31235 18.7515 3.39181L18.3894 3.73664ZM19.6052 6.82824C19.6092 7.99808 19.1752 9.09313 18.3894 9.91812L18.7515 10.263C19.6278 9.34285 20.1096 8.12297 20.1052 6.82652L19.6052 6.82824Z" fill="#005CC2"/>
</svg>
