<svg width="39" height="39" viewBox="0 0 39 39" fill="none" xmlns="http://www.w3.org/2000/svg">
<path d="M9.75 0C8.40937 0 7.3125 1.09687 7.3125 2.4375V36.5625C7.3125 37.9031 8.40937 39 9.75 39H34.125C35.4656 39 36.5625 37.9031 36.5625 36.5625V9.75L26.8125 0H9.75Z" fill="#F1F1F1"/>
<path d="M29.25 9.75H36.5625L26.8125 0V7.3125C26.8125 8.65312 27.9094 9.75 29.25 9.75Z" fill="#E5E5E5"/>
<path d="M31.6875 31.6875C31.6875 32.3578 31.1391 32.9062 30.4688 32.9062H3.65625C2.98594 32.9062 2.4375 32.3578 2.4375 31.6875V19.5C2.4375 18.8297 2.98594 18.2812 3.65625 18.2812H30.4688C31.1391 18.2812 31.6875 18.8297 31.6875 19.5V31.6875Z" fill="#CC0000"/>
<path d="M7.7499 23.0918C7.7499 22.7701 8.0034 22.4191 8.41169 22.4191H10.6627C11.9302 22.4191 13.071 23.2673 13.071 24.8931C13.071 26.4336 11.9302 27.2916 10.6627 27.2916H9.03569V28.5786C9.03569 29.0076 8.76269 29.2502 8.41169 29.2502C8.08994 29.2502 7.7499 29.0076 7.7499 28.5786V23.0918ZM9.03569 23.6463V26.0741H10.6627C11.316 26.0741 11.8327 25.4976 11.8327 24.8931C11.8327 24.2118 11.316 23.6463 10.6627 23.6463H9.03569Z" fill="white"/>
<path d="M14.9795 29.2503C14.6577 29.2503 14.3067 29.0748 14.3067 28.647V23.1115C14.3067 22.7617 14.6577 22.507 14.9795 22.507H17.211C21.6643 22.507 21.5668 29.2503 17.2987 29.2503H14.9795ZM15.5937 23.6965V28.062H17.211C19.8423 28.062 19.9593 23.6965 17.211 23.6965H15.5937Z" fill="white"/>
<path d="M23.1458 23.7741V25.3231H25.6309C25.9819 25.3231 26.3329 25.6741 26.3329 26.0142C26.3329 26.3359 25.9819 26.5992 25.6309 26.5992H23.1458V28.6454C23.1458 28.9867 22.9033 29.2487 22.562 29.2487C22.133 29.2487 21.871 28.9867 21.871 28.6454V23.1099C21.871 22.7601 22.1343 22.5054 22.562 22.5054H25.9831C26.4121 22.5054 26.6656 22.7601 26.6656 23.1099C26.6656 23.4219 26.4121 23.7729 25.9831 23.7729H23.1458V23.7741Z" fill="white"/>
</svg>
