<svg width="20" height="19" viewBox="0 0 20 19" fill="none" xmlns="http://www.w3.org/2000/svg">
<path d="M18.3845 1.71394C17.3373 0.614346 15.9508 0.0133554 14.4711 0.0133554C12.9913 0.0133554 11.6006 0.618798 10.5533 1.71839L10.0064 2.29267L9.45092 1.70948C8.40365 0.609894 7.0087 0 5.52895 0C4.05344 0 2.66273 0.605442 1.61969 1.70058C0.57242 2.80017 -0.00421676 4.26036 2.32169e-05 5.81403C2.32169e-05 7.3677 0.580899 8.82343 1.62817 9.92302L9.59084 18.2835C9.70108 18.3992 9.84948 18.4615 9.99364 18.4615C10.1378 18.4615 10.2862 18.4037 10.3964 18.2879L18.3761 9.94083C19.4233 8.84124 20 7.38105 20 5.82738C20.0042 4.27371 19.4318 2.81353 18.3845 1.71394ZM17.5705 9.09054L9.99364 17.0147L2.43377 9.07718C1.60273 8.20463 1.14482 7.04717 1.14482 5.81403C1.14482 4.58088 1.59849 3.42342 2.42953 2.55532C3.25632 1.68723 4.35872 1.20643 5.52895 1.20643C6.70342 1.20643 7.81005 1.68723 8.64109 2.55977L9.59932 3.56588C9.82404 3.80182 10.1844 3.80182 10.4092 3.56588L11.3589 2.56868C12.1899 1.69613 13.2966 1.21534 14.4668 1.21534C15.637 1.21534 16.7394 1.69613 17.5705 2.56423C18.4015 3.43678 18.8552 4.59424 18.8552 5.82738C18.8594 7.06053 18.4015 8.21799 17.5705 9.09054Z" fill="#005CC2"/>
<path d="M17.5705 9.09054L9.99364 17.0147L2.43377 9.07718C1.60273 8.20463 1.14482 7.04717 1.14482 5.81403C1.14482 4.58088 1.59849 3.42342 2.42953 2.55532C3.25632 1.68723 4.35872 1.20643 5.52895 1.20643C6.70342 1.20643 7.81005 1.68723 8.64109 2.55977L9.59932 3.56588C9.82404 3.80182 10.1844 3.80182 10.4092 3.56588L11.3589 2.56868C12.1899 1.69613 13.2966 1.21534 14.4668 1.21534C15.637 1.21534 16.7394 1.69613 17.5705 2.56423C18.4015 3.43678 18.8552 4.59424 18.8552 5.82738C18.8594 7.06053 18.4015 8.21799 17.5705 9.09054Z" fill="#005CC2"/>
</svg>
