<svg width="21" height="22" viewBox="0 0 21 22" fill="none" xmlns="http://www.w3.org/2000/svg">
<mask id="path-1-outside-1" maskUnits="userSpaceOnUse" x="0" y="0" width="21" height="22" fill="black">
<rect fill="white" width="21" height="22"/>
<path d="M16.3925 13.8488C15.2333 13.8488 14.1996 14.397 13.5383 15.2442L8.00154 12.1753C8.13128 11.8056 8.20242 11.407 8.20242 10.9958C8.20242 10.5806 8.13128 10.186 7.99736 9.81229L13.53 6.74751C14.187 7.59884 15.2249 8.15116 16.3883 8.15116C18.372 8.15116 19.9916 6.54817 19.9916 4.57558C19.9916 2.60299 18.3762 1 16.3883 1C14.4004 1 12.785 2.60299 12.785 4.57558C12.785 4.99086 12.8562 5.38953 12.9901 5.75914L7.46167 8.82392C6.80463 7.96844 5.76674 7.42027 4.6033 7.42027C2.6196 7.42027 1 9.02326 1 10.9958C1 12.9684 2.6196 14.5714 4.60749 14.5714C5.77093 14.5714 6.80881 14.0191 7.47004 13.1636L13.0026 16.2326C12.8687 16.6063 12.7934 17.0091 12.7934 17.4244C12.7934 19.3929 14.4088 21 16.3967 21C18.3846 21 20 19.397 20 17.4244C20 15.4518 18.3804 13.8488 16.3925 13.8488ZM16.3925 2.12542C17.7568 2.12542 18.8659 3.22591 18.8659 4.57973C18.8659 5.93355 17.7568 7.03405 16.3925 7.03405C15.0282 7.03405 13.9192 5.93355 13.9192 4.57973C13.9192 3.22591 15.0324 2.12542 16.3925 2.12542ZM4.60749 13.4502C3.24317 13.4502 2.13414 12.3497 2.13414 10.9958C2.13414 9.64203 3.24317 8.54153 4.60749 8.54153C5.97181 8.54153 7.08084 9.64203 7.08084 10.9958C7.08084 12.3497 5.96762 13.4502 4.60749 13.4502ZM16.3925 19.8746C15.0282 19.8746 13.9192 18.7741 13.9192 17.4203C13.9192 16.0664 15.0282 14.9659 16.3925 14.9659C17.7568 14.9659 18.8659 16.0664 18.8659 17.4203C18.8659 18.7741 17.7568 19.8746 16.3925 19.8746Z"/>
<path d="M16.3925 2.12542C17.7568 2.12542 18.8659 3.22591 18.8659 4.57973C18.8659 5.93355 17.7568 7.03405 16.3925 7.03405C15.0282 7.03405 13.9192 5.93355 13.9192 4.57973C13.9192 3.22591 15.0324 2.12542 16.3925 2.12542Z"/>
<path d="M4.60749 13.4502C3.24317 13.4502 2.13414 12.3497 2.13414 10.9958C2.13414 9.64203 3.24317 8.54153 4.60749 8.54153C5.97181 8.54153 7.08084 9.64203 7.08084 10.9958C7.08084 12.3497 5.96762 13.4502 4.60749 13.4502Z"/>
<path d="M16.3925 19.8746C15.0282 19.8746 13.9192 18.7741 13.9192 17.4203C13.9192 16.0664 15.0282 14.9659 16.3925 14.9659C17.7568 14.9659 18.8659 16.0664 18.8659 17.4203C18.8659 18.7741 17.7568 19.8746 16.3925 19.8746Z"/>
</mask>
<path d="M16.3925 13.8488C15.2333 13.8488 14.1996 14.397 13.5383 15.2442L8.00154 12.1753C8.13128 11.8056 8.20242 11.407 8.20242 10.9958C8.20242 10.5806 8.13128 10.186 7.99736 9.81229L13.53 6.74751C14.187 7.59884 15.2249 8.15116 16.3883 8.15116C18.372 8.15116 19.9916 6.54817 19.9916 4.57558C19.9916 2.60299 18.3762 1 16.3883 1C14.4004 1 12.785 2.60299 12.785 4.57558C12.785 4.99086 12.8562 5.38953 12.9901 5.75914L7.46167 8.82392C6.80463 7.96844 5.76674 7.42027 4.6033 7.42027C2.6196 7.42027 1 9.02326 1 10.9958C1 12.9684 2.6196 14.5714 4.60749 14.5714C5.77093 14.5714 6.80881 14.0191 7.47004 13.1636L13.0026 16.2326C12.8687 16.6063 12.7934 17.0091 12.7934 17.4244C12.7934 19.3929 14.4088 21 16.3967 21C18.3846 21 20 19.397 20 17.4244C20 15.4518 18.3804 13.8488 16.3925 13.8488ZM16.3925 2.12542C17.7568 2.12542 18.8659 3.22591 18.8659 4.57973C18.8659 5.93355 17.7568 7.03405 16.3925 7.03405C15.0282 7.03405 13.9192 5.93355 13.9192 4.57973C13.9192 3.22591 15.0324 2.12542 16.3925 2.12542ZM4.60749 13.4502C3.24317 13.4502 2.13414 12.3497 2.13414 10.9958C2.13414 9.64203 3.24317 8.54153 4.60749 8.54153C5.97181 8.54153 7.08084 9.64203 7.08084 10.9958C7.08084 12.3497 5.96762 13.4502 4.60749 13.4502ZM16.3925 19.8746C15.0282 19.8746 13.9192 18.7741 13.9192 17.4203C13.9192 16.0664 15.0282 14.9659 16.3925 14.9659C17.7568 14.9659 18.8659 16.0664 18.8659 17.4203C18.8659 18.7741 17.7568 19.8746 16.3925 19.8746Z" fill="#005CC2"/>
<path d="M16.3925 2.12542C17.7568 2.12542 18.8659 3.22591 18.8659 4.57973C18.8659 5.93355 17.7568 7.03405 16.3925 7.03405C15.0282 7.03405 13.9192 5.93355 13.9192 4.57973C13.9192 3.22591 15.0324 2.12542 16.3925 2.12542Z" fill="#005CC2"/>
<path d="M4.60749 13.4502C3.24317 13.4502 2.13414 12.3497 2.13414 10.9958C2.13414 9.64203 3.24317 8.54153 4.60749 8.54153C5.97181 8.54153 7.08084 9.64203 7.08084 10.9958C7.08084 12.3497 5.96762 13.4502 4.60749 13.4502Z" fill="#005CC2"/>
<path d="M16.3925 19.8746C15.0282 19.8746 13.9192 18.7741 13.9192 17.4203C13.9192 16.0664 15.0282 14.9659 16.3925 14.9659C17.7568 14.9659 18.8659 16.0664 18.8659 17.4203C18.8659 18.7741 17.7568 19.8746 16.3925 19.8746Z" fill="#005CC2"/>
<path d="M18.8659 17.4203H18.9909H18.8659ZM16.3925 2.25042C17.6887 2.25042 18.7409 3.29586 18.7409 4.57973H18.9909C18.9909 3.15597 17.825 2.00042 16.3925 2.00042V2.25042ZM18.7409 4.57973C18.7409 5.86361 17.6887 6.90905 16.3925 6.90905V7.15905C17.825 7.15905 18.9909 6.0035 18.9909 4.57973H18.7409ZM16.3925 6.90905C15.0963 6.90905 14.0442 5.86361 14.0442 4.57973H13.7942C13.7942 6.0035 14.9601 7.15905 16.3925 7.15905V6.90905ZM14.0442 4.57973C14.0442 3.29599 15.1004 2.25042 16.3925 2.25042V2.00042C14.9644 2.00042 13.7942 3.15583 13.7942 4.57973H14.0442ZM4.60749 13.3252C3.3113 13.3252 2.25914 12.2797 2.25914 10.9958H2.00914C2.00914 12.4196 3.17505 13.5752 4.60749 13.5752V13.3252ZM2.25914 10.9958C2.25914 9.71197 3.3113 8.66653 4.60749 8.66653V8.41653C3.17505 8.41653 2.00914 9.57208 2.00914 10.9958H2.25914ZM4.60749 8.66653C5.90368 8.66653 6.95584 9.71197 6.95584 10.9958H7.20584C7.20584 9.57208 6.03993 8.41653 4.60749 8.41653V8.66653ZM6.95584 10.9958C6.95584 12.2796 5.89964 13.3252 4.60749 13.3252V13.5752C6.03561 13.5752 7.20584 12.4197 7.20584 10.9958H6.95584ZM16.3925 19.7496C15.0963 19.7496 14.0442 18.7041 14.0442 17.4203H13.7942C13.7942 18.844 14.9601 19.9996 16.3925 19.9996V19.7496ZM14.0442 17.4203C14.0442 16.1364 15.0963 15.0909 16.3925 15.0909V14.8409C14.9601 14.8409 13.7942 15.9965 13.7942 17.4203H14.0442ZM16.3925 15.0909C17.6887 15.0909 18.7409 16.1364 18.7409 17.4203H18.9909C18.9909 15.9965 17.825 14.8409 16.3925 14.8409V15.0909ZM18.7409 17.4203C18.7409 18.7041 17.6887 19.7496 16.3925 19.7496V19.9996C17.825 19.9996 18.9909 18.844 18.9909 17.4203H18.7409ZM13.5383 15.2442L13.4171 15.4628L13.604 15.5664L13.7354 15.398L13.5383 15.2442ZM8.00154 12.1753L7.76565 12.0924L7.69575 12.2916L7.88034 12.3939L8.00154 12.1753ZM7.99736 9.81229L7.87621 9.5936L7.69033 9.69657L7.76201 9.89662L7.99736 9.81229ZM13.53 6.74751L13.7279 6.59476L13.5967 6.42476L13.4088 6.52882L13.53 6.74751ZM12.9901 5.75914L13.1113 5.97779L13.2978 5.87442L13.2251 5.67397L12.9901 5.75914ZM7.46167 8.82392L7.2634 8.9762L7.39456 9.14697L7.58289 9.04257L7.46167 8.82392ZM7.47004 13.1636L7.59131 12.945L7.40355 12.8409L7.27224 13.0107L7.47004 13.1636ZM13.0026 16.2326L13.238 16.3169L13.3096 16.117L13.1239 16.0139L13.0026 16.2326ZM16.3925 13.5988C15.1528 13.5988 14.0477 14.1853 13.3412 15.0904L13.7354 15.398C14.3515 14.6087 15.3138 14.0988 16.3925 14.0988V13.5988ZM13.6595 15.0255L8.12274 11.9566L7.88034 12.3939L13.4171 15.4628L13.6595 15.0255ZM8.23743 12.2581C8.37629 11.8625 8.45242 11.4358 8.45242 10.9958H7.95242C7.95242 11.3781 7.88626 11.7488 7.76565 12.0924L8.23743 12.2581ZM8.45242 10.9958C8.45242 10.5514 8.37618 10.1284 8.23271 9.72796L7.76201 9.89662C7.88638 10.2437 7.95242 10.6097 7.95242 10.9958H8.45242ZM8.1185 10.031L13.6511 6.9662L13.4088 6.52882L7.87621 9.5936L8.1185 10.031ZM13.332 6.90025C14.0345 7.81039 15.1443 8.40116 16.3883 8.40116V7.90116C15.3055 7.90116 14.3395 7.38728 13.7279 6.59476L13.332 6.90025ZM16.3883 8.40116C18.5081 8.40116 20.2416 6.68825 20.2416 4.57558H19.7416C19.7416 6.4081 18.236 7.90116 16.3883 7.90116V8.40116ZM20.2416 4.57558C20.2416 2.4631 18.5125 0.75 16.3883 0.75V1.25C18.24 1.25 19.7416 2.74288 19.7416 4.57558H20.2416ZM16.3883 0.75C14.2642 0.75 12.535 2.4631 12.535 4.57558H13.035C13.035 2.74288 14.5367 1.25 16.3883 1.25V0.75ZM12.535 4.57558C12.535 5.01957 12.6111 5.44708 12.755 5.8443L13.2251 5.67397C13.1012 5.33198 13.035 4.96216 13.035 4.57558H12.535ZM12.8689 5.54049L7.34046 8.60527L7.58289 9.04257L13.1113 5.97779L12.8689 5.54049ZM7.65994 8.67164C6.95705 7.75647 5.84682 7.17027 4.6033 7.17027V7.67027C5.68666 7.67027 6.6522 8.1804 7.2634 8.9762L7.65994 8.67164ZM4.6033 7.17027C2.48355 7.17027 0.75 8.88318 0.75 10.9958H1.25C1.25 9.16333 2.75566 7.67027 4.6033 7.67027V7.17027ZM0.75 10.9958C0.75 13.1087 2.48374 14.8214 4.60749 14.8214V14.3214C2.75547 14.3214 1.25 12.8282 1.25 10.9958H0.75ZM4.60749 14.8214C5.85176 14.8214 6.9614 14.2305 7.66784 13.3165L7.27224 13.0107C6.65622 13.8077 5.69009 14.3214 4.60749 14.3214V14.8214ZM7.34878 13.3822L12.8814 16.4512L13.1239 16.0139L7.59131 12.945L7.34878 13.3822ZM12.7673 16.1482C12.6242 16.5476 12.5434 16.9789 12.5434 17.4244H13.0434C13.0434 17.0394 13.1132 16.6651 13.238 16.3169L12.7673 16.1482ZM12.5434 17.4244C12.5434 19.5326 14.2724 21.25 16.3967 21.25V20.75C14.5452 20.75 13.0434 19.2532 13.0434 17.4244H12.5434ZM16.3967 21.25C18.5208 21.25 20.25 19.5369 20.25 17.4244H19.75C19.75 19.2571 18.2483 20.75 16.3967 20.75V21.25ZM20.25 17.4244C20.25 15.3116 18.5163 13.5988 16.3925 13.5988V14.0988C18.2445 14.0988 19.75 15.5921 19.75 17.4244H20.25Z" fill="#565B61" mask="url(#path-1-outside-1)"/>
</svg>
