<svg width="14" height="14" viewBox="0 0 14 14" fill="none" xmlns="http://www.w3.org/2000/svg">
<path d="M9.0137 7.22374C8.88585 7.09589 8.88585 6.90411 9.0137 6.77626L13.8082 1.98174C13.9361 1.85388 14 1.6621 14 1.53425C14 1.40639 13.9361 1.21461 13.8082 1.08676L12.9132 0.191781C12.7854 0.063927 12.5936 0 12.4658 0C12.274 0 12.1461 0.063927 12.0183 0.191781L7.22374 4.9863C7.09589 5.11416 6.90411 5.11416 6.77626 4.9863L1.98174 0.191781C1.85388 0.063927 1.6621 0 1.53425 0C1.40639 0 1.21461 0.063927 1.08676 0.191781L0.191781 1.08676C0.063927 1.21461 0 1.40639 0 1.53425C0 1.6621 0.063927 1.85388 0.191781 1.98174L4.9863 6.77626C5.11416 6.90411 5.11416 7.09589 4.9863 7.22374L0.191781 12.0183C0.063927 12.1461 0 12.3379 0 12.4658C0 12.5936 0.063927 12.7854 0.191781 12.9132L1.08676 13.8082C1.21461 13.9361 1.40639 14 1.53425 14C1.6621 14 1.85388 13.9361 1.98174 13.8082L6.77626 9.0137C6.90411 8.88585 7.09589 8.88585 7.22374 9.0137L12.0183 13.8082C12.1461 13.9361 12.3379 14 12.4658 14C12.5936 14 12.7854 13.9361 12.9132 13.8082L13.8082 12.9132C13.9361 12.7854 14 12.5936 14 12.4658C14 12.3379 13.9361 12.1461 13.8082 12.0183L9.0137 7.22374Z" fill="black"/>
</svg>
