<svg width="52" height="52" viewBox="0 0 52 52" fill="none" xmlns="http://www.w3.org/2000/svg">
<path d="M40.3062 37.8311C36.4449 37.8311 33.3037 41.0092 33.3037 44.9156C33.3037 48.8219 36.445 52 40.3062 52C44.1673 52 47.3087 48.8219 47.3087 44.9156C47.3087 41.0092 44.1673 37.8311 40.3062 37.8311ZM40.3062 47.7493C38.7614 47.7493 37.5052 46.4784 37.5052 44.9156C37.5052 43.3527 38.7614 42.0818 40.3062 42.0818C41.8509 42.0818 43.1072 43.3527 43.1072 44.9156C43.1072 46.4784 41.8509 47.7493 40.3062 47.7493Z" fill="#54C147"/>
<path d="M51.5536 10.4502C51.1559 9.9352 50.5459 9.6348 49.8996 9.6348H12.9673L11.0766 1.63151C10.8505 0.675153 10.0052 9.70615e-09 9.03326 9.70615e-09H2.10075C0.940466 -0.000110962 0 0.951362 0 2.12522C0 3.29908 0.940466 4.25056 2.10075 4.25056H7.3751L14.2025 33.1524C14.4287 34.1096 15.274 34.7839 16.2459 34.7839H44.7878C45.7535 34.7839 46.5951 34.118 46.8269 33.1701L51.9388 12.2708C52.0935 11.6362 51.9513 10.9652 51.5536 10.4502ZM43.1442 30.5334H17.9041L13.9714 13.8855H47.2154L43.1442 30.5334Z" fill="#54C147"/>
<path d="M19.0469 37.8311C15.1857 37.8311 12.0444 41.0092 12.0444 44.9156C12.0444 48.8219 15.1858 52 19.0469 52C22.908 52 26.0494 48.8219 26.0494 44.9156C26.0494 41.0092 22.908 37.8311 19.0469 37.8311ZM19.0469 47.7493C17.5022 47.7493 16.2459 46.4784 16.2459 44.9156C16.2459 43.3527 17.5022 42.0818 19.0469 42.0818C20.5917 42.0818 21.8479 43.3527 21.8479 44.9156C21.8479 46.4784 20.5917 47.7493 19.0469 47.7493Z" fill="#54C147"/>
</svg>
