<svg width="20" height="20" viewBox="0 0 20 20" fill="none" xmlns="http://www.w3.org/2000/svg">
<mask id="path-1-inside-1" fill="white">
<path d="M19.4141 20H0.585938C0.262299 20 0 19.7377 0 19.4141V0.585912C0 0.348943 0.14267 0.135167 0.361786 0.0445295C0.580598 -0.0459553 0.832673 0.00394099 1.00021 0.171635L19.8284 18.9998C19.9961 19.1673 20.0461 19.4194 19.9555 19.6384C19.8647 19.8572 19.6511 20 19.4141 20ZM4.30985 15.6901H10.4683L4.30985 9.53169V15.6901Z"/>
</mask>
<path d="M0.361786 0.0445295L-0.211428 -1.34163L-0.211571 -1.34157L0.361786 0.0445295ZM1.00021 0.171635L-0.060928 1.23181L-0.0604452 1.2323L1.00021 0.171635ZM19.8284 18.9998L18.7677 20.0604L18.7682 20.0609L19.8284 18.9998ZM19.9555 19.6384L21.3409 20.2132L21.3414 20.2121L19.9555 19.6384ZM4.30985 15.6901H2.80985V17.1901H4.30985V15.6901ZM10.4683 15.6901V17.1901H14.0896L11.529 14.6295L10.4683 15.6901ZM4.30985 9.53169L5.37051 8.47103L2.80985 5.91037V9.53169H4.30985ZM19.4141 18.5H0.585938V21.5H19.4141V18.5ZM0.585938 18.5C1.09073 18.5 1.5 18.9093 1.5 19.4141H-1.5C-1.5 20.5661 -0.566128 21.5 0.585938 21.5V18.5ZM1.5 19.4141V0.585912H-1.5V19.4141H1.5ZM1.5 0.585912C1.5 0.955045 1.27768 1.28893 0.935144 1.43063L-0.211571 -1.34157C-0.992343 -1.0186 -1.5 -0.25716 -1.5 0.585912H1.5ZM0.935001 1.43068C0.5947 1.57141 0.201404 1.49438 -0.0609279 1.23181L2.06136 -0.888542C1.46394 -1.4865 0.566496 -1.66332 -0.211428 -1.34163L0.935001 1.43068ZM-0.0604452 1.2323L18.7677 20.0604L20.889 17.9391L2.06088 -0.889025L-0.0604452 1.2323ZM18.7682 20.0609C18.506 19.799 18.4284 19.4056 18.5695 19.0647L21.3414 20.2121C21.6638 19.4332 21.4861 18.5357 20.8885 17.9386L18.7682 20.0609ZM18.57 19.0635C18.7113 18.7229 19.044 18.5 19.4141 18.5V21.5C20.2581 21.5 21.018 20.9915 21.3409 20.2132L18.57 19.0635ZM4.30985 17.1901H10.4683V14.1901H4.30985V17.1901ZM11.529 14.6295L5.37051 8.47103L3.24919 10.5924L9.40765 16.7508L11.529 14.6295ZM2.80985 9.53169V15.6901H5.80985V9.53169H2.80985Z" fill="black" mask="url(#path-1-inside-1)"/>
</svg>
