<svg width="20" height="20" viewBox="0 0 20 20" fill="none" xmlns="http://www.w3.org/2000/svg">
<path d="M0 6.92308C0 6.07341 0.688793 5.38462 1.53846 5.38462H4.61538C5.46505 5.38462 6.15385 6.07341 6.15385 6.92308V17.6923C6.15385 18.542 5.46505 19.2308 4.61538 19.2308H1.53846C0.688793 19.2308 0 18.542 0 17.6923V6.92308Z" fill="#005CC2"/>
<path d="M13.8462 11.5385C13.8462 10.6888 14.5349 10 15.3846 10H18.4615C19.3112 10 20 10.6888 20 11.5385V17.6923C20 18.542 19.3112 19.2308 18.4615 19.2308H15.3846C14.5349 19.2308 13.8462 18.542 13.8462 17.6923V11.5385Z" fill="#005CC2"/>
<path d="M6.92308 1.53846C6.92308 0.688792 7.61187 0 8.46154 0H11.5385C12.3881 0 13.0769 0.688793 13.0769 1.53846V17.6923C13.0769 18.542 12.3881 19.2308 11.5385 19.2308H8.46154C7.61187 19.2308 6.92308 18.542 6.92308 17.6923V1.53846Z" fill="#005CC2"/>
<path d="M1.53846 5.38462H4.61538C5.46505 5.38462 6.15385 6.07341 6.15385 6.92308V17.6923C6.15385 18.542 5.46505 19.2308 4.61538 19.2308H1.53846C0.688793 19.2308 0 18.542 0 17.6923V6.92308C0 6.07341 0.688793 5.38462 1.53846 5.38462Z" fill="#005CC2"/>
</svg>
