<svg width="54" height="54" viewBox="0 0 54 54" fill="none" xmlns="http://www.w3.org/2000/svg">
<mask id="path-1-outside-1" maskUnits="userSpaceOnUse" x="0" y="0" width="54" height="54" fill="black">
<rect fill="white" width="54" height="54"/>
<path d="M27 1C12.664 1 1 12.663 1 27C1 41.337 12.664 53 27 53C41.336 53 53 41.337 53 27C53 12.663 41.336 1 27 1ZM27 51C13.767 51 3 40.233 3 27C3 13.767 13.767 3 27 3C40.233 3 51 13.767 51 27C51 40.233 40.233 51 27 51Z"/>
<path d="M39.252 18.336L23.883 35.626L14.624 28.219C14.194 27.874 13.563 27.945 13.219 28.375C12.874 28.807 12.944 29.436 13.375 29.781L23.375 37.781C23.559 37.928 23.78 38 24 38C24.276 38 24.551 37.886 24.748 37.664L40.748 19.664C41.115 19.252 41.078 18.619 40.665 18.253C40.251 17.885 39.62 17.922 39.252 18.336Z"/>
</mask>
<path d="M27 1C12.664 1 1 12.663 1 27C1 41.337 12.664 53 27 53C41.336 53 53 41.337 53 27C53 12.663 41.336 1 27 1ZM27 51C13.767 51 3 40.233 3 27C3 13.767 13.767 3 27 3C40.233 3 51 13.767 51 27C51 40.233 40.233 51 27 51Z" fill="#54C147"/>
<path d="M39.252 18.336L23.883 35.626L14.624 28.219C14.194 27.874 13.563 27.945 13.219 28.375C12.874 28.807 12.944 29.436 13.375 29.781L23.375 37.781C23.559 37.928 23.78 38 24 38C24.276 38 24.551 37.886 24.748 37.664L40.748 19.664C41.115 19.252 41.078 18.619 40.665 18.253C40.251 17.885 39.62 17.922 39.252 18.336Z" fill="#54C147"/>
<path d="M39.252 18.336L39.9994 19.0004L39.9994 19.0004L39.252 18.336ZM23.883 35.626L23.2583 36.4069L23.9997 36.9999L24.6304 36.2904L23.883 35.626ZM14.624 28.219L13.9982 28.999L13.9993 28.9999L14.624 28.219ZM13.219 28.375L12.4381 27.7503L12.4376 27.751L13.219 28.375ZM13.375 29.781L12.7501 30.5617L12.7503 30.5619L13.375 29.781ZM23.375 37.781L22.7503 38.5619L22.7508 38.5623L23.375 37.781ZM24.748 37.664L24.0006 36.9996L24 37.0003L24.748 37.664ZM40.748 19.664L40.0013 18.9988L40.0006 18.9996L40.748 19.664ZM40.665 18.253L40.0006 19.0004L40.0018 19.0014L40.665 18.253ZM27 0C12.1117 0 0 12.1107 0 27H2C2 13.2153 13.2163 2 27 2V0ZM0 27C0 41.8893 12.1117 54 27 54V52C13.2163 52 2 40.7847 2 27H0ZM27 54C41.8883 54 54 41.8893 54 27H52C52 40.7847 40.7837 52 27 52V54ZM54 27C54 12.1107 41.8883 0 27 0V2C40.7837 2 52 13.2153 52 27H54ZM27 50C14.3193 50 4 39.6807 4 27H2C2 40.7853 13.2147 52 27 52V50ZM4 27C4 14.3193 14.3193 4 27 4V2C13.2147 2 2 13.2147 2 27H4ZM27 4C39.6807 4 50 14.3193 50 27H52C52 13.2147 40.7853 2 27 2V4ZM50 27C50 39.6807 39.6807 50 27 50V52C40.7853 52 52 40.7853 52 27H50ZM38.5046 17.6716L23.1356 34.9616L24.6304 36.2904L39.9994 19.0004L38.5046 17.6716ZM24.5077 34.8451L15.2487 27.4381L13.9993 28.9999L23.2583 36.4069L24.5077 34.8451ZM15.2498 27.439C14.387 26.7468 13.1262 26.8902 12.4381 27.7503L13.9999 28.9997C14.0004 28.9991 14.0004 28.9992 13.9999 28.9996C13.9994 29 13.9989 29.0003 13.9986 29.0005C13.9981 29.0008 13.9986 29.0004 14.0001 29.0002C14.0015 29.0001 14.0018 29.0003 14.0008 29C14.0002 28.9999 13.9994 28.9996 13.9987 28.9992C13.9979 28.9988 13.9977 28.9986 13.9982 28.999L15.2498 27.439ZM12.4376 27.751C11.7486 28.6137 11.8878 29.8714 12.7501 30.5617L13.9999 29.0003C13.9989 28.9995 13.9988 28.9992 13.9991 28.9996C13.9994 29 13.9997 29.0004 13.9999 29.0008C14.0003 29.0015 14 29.0013 13.9999 29.0002C13.9998 28.9992 14 28.9988 13.9998 28.9994C13.9997 28.9997 13.9996 29.0001 13.9994 29.0004C13.9993 29.0007 13.9994 29.0002 14.0004 28.999L12.4376 27.751ZM12.7503 30.5619L22.7503 38.5619L23.9997 37.0001L13.9997 29.0001L12.7503 30.5619ZM22.7508 38.5623C23.1183 38.8559 23.5613 39 24 39V37L23.9992 36.9997L22.7508 38.5623ZM24 39C24.55 39 25.1014 38.7724 25.496 38.3277L24 37.0003L24 37V39ZM25.4954 38.3284L41.4954 20.3284L40.0006 18.9996L24.0006 36.9996L25.4954 38.3284ZM41.4947 20.3292C42.2293 19.5045 42.1558 18.238 41.3282 17.5046L40.0018 19.0014C40.0025 19.0021 40.0024 19.0021 40.0019 19.0015C40.0015 19.0009 40.0012 19.0003 40.0009 18.9997C40.0004 18.9988 40.0007 18.9988 40.0007 18.9999C40.0008 19.0009 40.0006 19.0011 40.0009 19.0002C40.001 18.9997 40.0013 18.9991 40.0016 18.9986C40.0019 18.998 40.002 18.9981 40.0013 18.9988L41.4947 20.3292ZM41.3294 17.5056C40.5027 16.7708 39.2397 16.8447 38.5046 17.6716L39.9994 19.0004C40.0006 18.999 40.0011 18.9987 40.0009 18.9988C40.0008 18.9989 40.0004 18.9992 40 18.9994C39.9993 18.9997 39.9992 18.9996 39.9999 18.9995C40.0005 18.9995 40.0005 18.9996 39.9998 18.9994C39.9994 18.9993 39.999 18.9991 39.9989 18.999C39.9987 18.9989 39.9993 18.9992 40.0006 19.0004L41.3294 17.5056Z" fill="#54C147" mask="url(#path-1-outside-1)"/>
</svg>
