<svg width="20" height="17" viewBox="0 0 20 17" fill="none" xmlns="http://www.w3.org/2000/svg">
<path d="M5.39445 16.5173C5.99406 17.1306 6.9674 17.1306 7.56701 16.5173L15.0047 8.90914C15.2182 8.69068 15.3825 8.43021 15.4893 8.15294C16.2367 8.3672 16.9637 8.48063 17.6043 8.47643C19.1896 8.46802 19.7153 7.75804 19.8878 7.33373C20.0603 6.91363 20.1835 6.0314 19.0705 4.87191C19.0582 4.8593 19.0459 4.8467 19.0336 4.8341C18.3436 4.12832 17.3415 3.47715 16.2039 2.99403C15.9944 2.9058 15.785 2.82598 15.5796 2.75036V2.73776C15.5673 1.80512 14.8322 1.05313 13.9204 1.04053L9.46441 0.977512C8.87302 0.96911 8.30626 1.20437 7.89146 1.63288L0.449709 9.24102C-0.149903 9.85438 -0.149903 10.85 0.449709 11.4634L5.39445 16.5173ZM11.1277 3.69981C11.6247 3.19148 12.4296 3.19148 12.9266 3.69981C13.2223 4.00228 13.3414 4.41819 13.2839 4.80889C13.7726 5.16178 14.3558 5.48946 14.98 5.75413C15.2018 5.84655 15.4154 5.93058 15.6207 6.00199L15.5961 4.17033C15.633 4.18713 15.6659 4.19973 15.7028 4.21654C16.6762 4.63245 17.551 5.19539 18.1136 5.77094C18.1218 5.77934 18.13 5.78774 18.1382 5.79614C18.6721 6.35488 18.7296 6.71198 18.6845 6.8212C18.5448 7.16149 17.0458 7.46397 14.7706 6.49352C14.1052 6.20785 13.481 5.85496 12.9758 5.47266C12.9594 5.49366 12.9389 5.51467 12.9224 5.53568C12.4255 6.044 11.6206 6.044 11.1236 5.53568C10.6308 5.03155 10.6308 4.20814 11.1277 3.69981Z" fill="#FF8A02"/>
</svg>
