<svg width="18" height="20" viewBox="0 0 18 20" fill="none" xmlns="http://www.w3.org/2000/svg">
<path d="M13.6292 2.13347C12.3051 0.757655 10.5488 0 8.68322 0C6.81767 0 5.06135 0.757655 3.73772 2.13347C1.02815 4.94909 1.02815 9.53068 3.73651 12.3454L8.16224 16.9635C8.29838 17.1054 8.48646 17.1858 8.68322 17.1858C8.87998 17.1858 9.06806 17.1054 9.20419 16.9635L13.6292 12.3463C16.3388 9.53045 16.3388 4.94913 13.6292 2.13347ZM12.588 11.3467L8.68322 15.4213L4.77752 11.3458C2.59905 9.08166 2.59905 5.39796 4.77752 3.1341C5.82693 2.04379 7.21385 1.44316 8.68322 1.44316C10.1526 1.44316 11.5397 2.04375 12.5889 3.1341C14.7676 5.39819 14.7676 9.08162 12.588 11.3467Z" fill="black"/>
<path d="M8.68322 3.61995C7.07842 3.61995 5.77283 4.92554 5.77283 6.53034C5.77283 8.13514 7.07842 9.44072 8.68322 9.44072C10.2883 9.44072 11.5936 8.13514 11.5936 6.53034C11.5936 4.92554 10.288 3.61995 8.68322 3.61995ZM8.68322 7.99756C7.87408 7.99756 7.21599 7.33948 7.21599 6.53034C7.21599 5.7212 7.87408 5.06312 8.68322 5.06312C9.49236 5.06312 10.1504 5.7212 10.1504 6.53034C10.1504 7.33948 9.49236 7.99756 8.68322 7.99756Z" fill="black"/>
<path d="M17.3617 19.1978L16.6401 12.7757C16.5992 12.4106 16.2904 12.1347 15.9231 12.1347H12.1468V13.5779H15.2782L15.8377 18.5568H1.52893L2.08839 13.5779H5.21936V12.1347H1.44308C1.07577 12.1347 0.767179 12.4106 0.726046 12.7757L0.00448465 19.1978C-0.0183669 19.402 0.0468284 19.606 0.183664 19.7592C0.320773 19.9124 0.51632 20 0.72171 20H16.6447C16.8501 20 17.0457 19.9125 17.1825 19.7592C17.3194 19.606 17.3846 19.402 17.3617 19.1978Z" fill="black"/>
</svg>
