<svg width="16" height="22" viewBox="0 0 16 22" fill="none" xmlns="http://www.w3.org/2000/svg">
<path d="M14 1H2.66668C1.74734 1 1 1.748 1 2.66669V19.3333C1 20.252 1.74734 21 2.66668 21H14C14.9194 21 15.6667 20.252 15.6667 19.3334V2.66669C15.6667 1.748 14.9194 1 14 1ZM15 19.3334C15 19.8847 14.5513 20.3334 14 20.3334H2.66668C2.11536 20.3334 1.66668 19.8847 1.66668 19.3334V2.66669C1.66668 2.11536 2.11536 1.66668 2.66668 1.66668H14C14.5513 1.66668 15 2.11536 15 2.66669V19.3334Z" fill="black"/>
<path d="M5.33337 8.33335H3.33337C3.14939 8.33335 3.00004 8.48266 3.00004 8.66667V10.6667C3.00004 10.8507 3.14936 11 3.33337 11H5.33334C5.51735 11 5.6667 10.8507 5.6667 10.6667V8.66667C5.6667 8.4827 5.51738 8.33335 5.33337 8.33335ZM5.00001 10.3333H3.66669V8.99999H5.00001V10.3333Z" fill="black"/>
<path d="M9.33335 8.33335H7.33334C7.14937 8.33335 7.00002 8.48266 7.00002 8.66667V10.6667C7.00002 10.8507 7.14933 11 7.33334 11H9.33335C9.51736 11 9.66667 10.8507 9.66667 10.6667V8.66667C9.66667 8.4827 9.51736 8.33335 9.33335 8.33335ZM8.99999 10.3333H7.66667V8.99999H8.99999V10.3333Z" fill="black"/>
<path d="M13.3334 8.33335H11.3334C11.1494 8.33335 11 8.48266 11 8.66667V10.6667C11 10.8507 11.1493 11 11.3334 11H13.3334C13.5173 11 13.6667 10.8507 13.6667 10.6667V8.66667C13.6667 8.4827 13.5174 8.33335 13.3334 8.33335ZM13 10.3333H11.6667V8.99999H13V10.3333Z" fill="black"/>
<path d="M5.33337 12.3334H3.33337C3.14939 12.3334 3.00004 12.4827 3.00004 12.6667V14.6667C3.00004 14.8507 3.14936 15 3.33337 15H5.33334C5.51735 15 5.6667 14.8507 5.6667 14.6667V12.6667C5.6667 12.4827 5.51738 12.3334 5.33337 12.3334ZM5.00001 14.3333H3.66669V13H5.00001V14.3333Z" fill="black"/>
<path d="M9.33335 12.3334H7.33334C7.14937 12.3334 7.00002 12.4827 7.00002 12.6667V14.6667C7.00002 14.8507 7.14933 15 7.33334 15H9.33335C9.51736 15 9.66667 14.8507 9.66667 14.6667V12.6667C9.66667 12.4827 9.51736 12.3334 9.33335 12.3334ZM8.99999 14.3333H7.66667V13H8.99999V14.3333Z" fill="black"/>
<path d="M13.3334 12.3334H11.3334C11.1494 12.3334 11 12.4827 11 12.6667V14.6667C11 14.8507 11.1493 15 11.3334 15H13.3334C13.5173 15 13.6667 14.8507 13.6667 14.6667V12.6667C13.6667 12.4827 13.5174 12.3334 13.3334 12.3334ZM13 14.3333H11.6667V13H13V14.3333Z" fill="black"/>
<path d="M5.33337 16.3333H3.33337C3.14939 16.3333 3.00004 16.4827 3.00004 16.6667V18.6667C3.00004 18.8506 3.14936 19 3.33337 19H5.33334C5.51735 19 5.6667 18.8507 5.6667 18.6667V16.6667C5.6667 16.4827 5.51738 16.3333 5.33337 16.3333ZM5.00001 18.3333H3.66669V17H5.00001V18.3333Z" fill="black"/>
<path d="M9.33335 16.3333H7.33334C7.14937 16.3333 7.00002 16.4827 7.00002 16.6667V18.6667C7.00002 18.8506 7.14933 19 7.33334 19H9.33335C9.51736 19 9.66667 18.8507 9.66667 18.6667V16.6667C9.66667 16.4827 9.51736 16.3333 9.33335 16.3333ZM8.99999 18.3333H7.66667V17H8.99999V18.3333Z" fill="black"/>
<path d="M13.3334 16.3333H11.3334C11.1494 16.3333 11 16.4827 11 16.6667V18.6667C11 18.8506 11.1493 19 11.3334 19H13.3334C13.5173 19 13.6667 18.8507 13.6667 18.6667V16.6667C13.6667 16.4827 13.5174 16.3333 13.3334 16.3333ZM13 18.3333H11.6667V17H13V18.3333Z" fill="black"/>
<path d="M13.3334 3.00001H3.33337C3.14939 3.00001 3.00004 3.14932 3.00004 3.33333V6.66666C3.00004 6.85064 3.14936 6.99998 3.33337 6.99998H13.3334C13.5173 6.99998 13.6667 6.85067 13.6667 6.66666V3.33333C13.6667 3.14936 13.5174 3.00001 13.3334 3.00001ZM13 6.33334H3.66669V3.66665H13V6.33334Z" fill="black"/>
<path d="M5.6667 8.66667H5.9167H5.6667ZM5.00001 10.3333V10.5833H5.25001V10.3333H5.00001ZM3.66669 10.3333H3.41669V10.5833H3.66669V10.3333ZM3.66669 8.99999V8.74999H3.41669V8.99999H3.66669ZM5.00001 8.99999H5.25001V8.74999H5.00001V8.99999ZM8.99999 10.3333V10.5833H9.24999V10.3333H8.99999ZM7.66667 10.3333H7.41667V10.5833H7.66667V10.3333ZM7.66667 8.99999V8.74999H7.41667V8.99999H7.66667ZM8.99999 8.99999H9.24999V8.74999H8.99999V8.99999ZM13 10.3333V10.5833H13.25V10.3333H13ZM11.6667 10.3333H11.4167V10.5833H11.6667V10.3333ZM11.6667 8.99999V8.74999H11.4167V8.99999H11.6667ZM13 8.99999H13.25V8.74999H13V8.99999ZM5.6667 12.6667H5.9167H5.6667ZM5.00001 14.3333V14.5833H5.25001V14.3333H5.00001ZM3.66669 14.3333H3.41669V14.5833H3.66669V14.3333ZM3.66669 13V12.75H3.41669V13H3.66669ZM5.00001 13H5.25001V12.75H5.00001V13ZM8.99999 14.3333V14.5833H9.24999V14.3333H8.99999ZM7.66667 14.3333H7.41667V14.5833H7.66667V14.3333ZM7.66667 13V12.75H7.41667V13H7.66667ZM8.99999 13H9.24999V12.75H8.99999V13ZM13 14.3333V14.5833H13.25V14.3333H13ZM11.6667 14.3333H11.4167V14.5833H11.6667V14.3333ZM11.6667 13V12.75H11.4167V13H11.6667ZM13 13H13.25V12.75H13V13ZM5.6667 16.6667H5.9167H5.6667ZM5.00001 18.3333V18.5833H5.25001V18.3333H5.00001ZM3.66669 18.3333H3.41669V18.5833H3.66669V18.3333ZM3.66669 17V16.75H3.41669V17H3.66669ZM5.00001 17H5.25001V16.75H5.00001V17ZM8.99999 18.3333V18.5833H9.24999V18.3333H8.99999ZM7.66667 18.3333H7.41667V18.5833H7.66667V18.3333ZM7.66667 17V16.75H7.41667V17H7.66667ZM8.99999 17H9.24999V16.75H8.99999V17ZM13 18.3333V18.5833H13.25V18.3333H13ZM11.6667 18.3333H11.4167V18.5833H11.6667V18.3333ZM11.6667 17V16.75H11.4167V17H11.6667ZM13 17H13.25V16.75H13V17ZM13.6667 3.33333H13.4167H13.6667ZM13 6.33334V6.58334H13.25V6.33334H13ZM3.66669 6.33334H3.41669V6.58334H3.66669V6.33334ZM3.66669 3.66665V3.41665H3.41669V3.66665H3.66669ZM13 3.66665H13.25V3.41665H13V3.66665ZM14 0.75H2.66668V1.25H14V0.75ZM2.66668 0.75C1.6092 0.75 0.75 1.61 0.75 2.66669H1.25C1.25 1.88601 1.88547 1.25 2.66668 1.25V0.75ZM0.75 2.66669V19.3333H1.25V2.66669H0.75ZM0.75 19.3333C0.75 20.39 1.6092 21.25 2.66668 21.25V20.75C1.88547 20.75 1.25 20.114 1.25 19.3333H0.75ZM2.66668 21.25H14V20.75H2.66668V21.25ZM14 21.25C15.0575 21.25 15.9167 20.39 15.9167 19.3334H15.4167C15.4167 20.114 14.7812 20.75 14 20.75V21.25ZM15.9167 19.3334V2.66669H15.4167V19.3334H15.9167ZM15.9167 2.66669C15.9167 1.61 15.0575 0.75 14 0.75V1.25C14.7812 1.25 15.4167 1.88601 15.4167 2.66669H15.9167ZM14.75 19.3334C14.75 19.7466 14.4133 20.0834 14 20.0834V20.5834C14.6894 20.5834 15.25 20.0228 15.25 19.3334H14.75ZM14 20.0834H2.66668V20.5834H14V20.0834ZM2.66668 20.0834C2.25343 20.0834 1.91668 19.7466 1.91668 19.3334H1.41668C1.41668 20.0228 1.97729 20.5834 2.66668 20.5834V20.0834ZM1.91668 19.3334V2.66669H1.41668V19.3334H1.91668ZM1.91668 2.66669C1.91668 2.25343 2.25343 1.91668 2.66668 1.91668V1.41668C1.97729 1.41668 1.41668 1.97729 1.41668 2.66669H1.91668ZM2.66668 1.91668H14V1.41668H2.66668V1.91668ZM14 1.91668C14.4133 1.91668 14.75 2.25343 14.75 2.66669H15.25C15.25 1.97729 14.6894 1.41668 14 1.41668V1.91668ZM14.75 2.66669V19.3334H15.25V2.66669H14.75ZM5.33337 8.08335H3.33337V8.58335H5.33337V8.08335ZM3.33337 8.08335C3.01134 8.08335 2.75004 8.34457 2.75004 8.66667H3.25004C3.25004 8.62075 3.28745 8.58335 3.33337 8.58335V8.08335ZM2.75004 8.66667V10.6667H3.25004V8.66667H2.75004ZM2.75004 10.6667C2.75004 10.9887 3.01127 11.25 3.33337 11.25V10.75C3.28745 10.75 3.25004 10.7126 3.25004 10.6667H2.75004ZM3.33337 11.25H5.33334V10.75H3.33337V11.25ZM5.33334 11.25C5.6554 11.25 5.9167 10.9887 5.9167 10.6667H5.4167C5.4167 10.7126 5.37929 10.75 5.33334 10.75V11.25ZM5.9167 10.6667V8.66667H5.4167V10.6667H5.9167ZM5.9167 8.66667C5.9167 8.34464 5.65547 8.08335 5.33337 8.08335V8.58335C5.3793 8.58335 5.4167 8.62075 5.4167 8.66667H5.9167ZM5.00001 10.0833H3.66669V10.5833H5.00001V10.0833ZM3.91669 10.3333V8.99999H3.41669V10.3333H3.91669ZM3.66669 9.24999H5.00001V8.74999H3.66669V9.24999ZM4.75001 8.99999V10.3333H5.25001V8.99999H4.75001ZM9.33335 8.08335H7.33334V8.58335H9.33335V8.08335ZM7.33334 8.08335C7.01132 8.08335 6.75002 8.34457 6.75002 8.66667H7.25002C7.25002 8.62075 7.28742 8.58335 7.33334 8.58335V8.08335ZM6.75002 8.66667V10.6667H7.25002V8.66667H6.75002ZM6.75002 10.6667C6.75002 10.9887 7.01124 11.25 7.33334 11.25V10.75C7.28742 10.75 7.25002 10.7126 7.25002 10.6667H6.75002ZM7.33334 11.25H9.33335V10.75H7.33334V11.25ZM9.33335 11.25C9.65545 11.25 9.91667 10.9887 9.91667 10.6667H9.41667C9.41667 10.7126 9.37927 10.75 9.33335 10.75V11.25ZM9.91667 10.6667V8.66667H9.41667V10.6667H9.91667ZM9.91667 8.66667C9.91667 8.34464 9.65545 8.08335 9.33335 8.08335V8.58335C9.37927 8.58335 9.41667 8.62075 9.41667 8.66667H9.91667ZM8.99999 10.0833H7.66667V10.5833H8.99999V10.0833ZM7.91667 10.3333V8.99999H7.41667V10.3333H7.91667ZM7.66667 9.24999H8.99999V8.74999H7.66667V9.24999ZM8.74999 8.99999V10.3333H9.24999V8.99999H8.74999ZM13.3334 8.08335H11.3334V8.58335H13.3334V8.08335ZM11.3334 8.08335C11.0113 8.08335 10.75 8.34457 10.75 8.66667H11.25C11.25 8.62075 11.2874 8.58335 11.3334 8.58335V8.08335ZM10.75 8.66667V10.6667H11.25V8.66667H10.75ZM10.75 10.6667C10.75 10.9887 11.0113 11.25 11.3334 11.25V10.75C11.2874 10.75 11.25 10.7126 11.25 10.6667H10.75ZM11.3334 11.25H13.3334V10.75H11.3334V11.25ZM13.3334 11.25C13.6554 11.25 13.9167 10.9887 13.9167 10.6667H13.4167C13.4167 10.7126 13.3793 10.75 13.3334 10.75V11.25ZM13.9167 10.6667V8.66667H13.4167V10.6667H13.9167ZM13.9167 8.66667C13.9167 8.34464 13.6555 8.08335 13.3334 8.08335V8.58335C13.3793 8.58335 13.4167 8.62075 13.4167 8.66667H13.9167ZM13 10.0833H11.6667V10.5833H13V10.0833ZM11.9167 10.3333V8.99999H11.4167V10.3333H11.9167ZM11.6667 9.24999H13V8.74999H11.6667V9.24999ZM12.75 8.99999V10.3333H13.25V8.99999H12.75ZM5.33337 12.0834H3.33337V12.5834H5.33337V12.0834ZM3.33337 12.0834C3.01134 12.0834 2.75004 12.3446 2.75004 12.6667H3.25004C3.25004 12.6208 3.28745 12.5834 3.33337 12.5834V12.0834ZM2.75004 12.6667V14.6667H3.25004V12.6667H2.75004ZM2.75004 14.6667C2.75004 14.9887 3.01127 15.25 3.33337 15.25V14.75C3.28745 14.75 3.25004 14.7126 3.25004 14.6667H2.75004ZM3.33337 15.25H5.33334V14.75H3.33337V15.25ZM5.33334 15.25C5.6554 15.25 5.9167 14.9888 5.9167 14.6667H5.4167C5.4167 14.7126 5.37929 14.75 5.33334 14.75V15.25ZM5.9167 14.6667V12.6667H5.4167V14.6667H5.9167ZM5.9167 12.6667C5.9167 12.3447 5.65547 12.0834 5.33337 12.0834V12.5834C5.3793 12.5834 5.4167 12.6208 5.4167 12.6667H5.9167ZM5.00001 14.0833H3.66669V14.5833H5.00001V14.0833ZM3.91669 14.3333V13H3.41669V14.3333H3.91669ZM3.66669 13.25H5.00001V12.75H3.66669V13.25ZM4.75001 13V14.3333H5.25001V13H4.75001ZM9.33335 12.0834H7.33334V12.5834H9.33335V12.0834ZM7.33334 12.0834C7.01132 12.0834 6.75002 12.3446 6.75002 12.6667H7.25002C7.25002 12.6208 7.28742 12.5834 7.33334 12.5834V12.0834ZM6.75002 12.6667V14.6667H7.25002V12.6667H6.75002ZM6.75002 14.6667C6.75002 14.9887 7.01124 15.25 7.33334 15.25V14.75C7.28742 14.75 7.25002 14.7126 7.25002 14.6667H6.75002ZM7.33334 15.25H9.33335V14.75H7.33334V15.25ZM9.33335 15.25C9.65545 15.25 9.91667 14.9887 9.91667 14.6667H9.41667C9.41667 14.7126 9.37927 14.75 9.33335 14.75V15.25ZM9.91667 14.6667V12.6667H9.41667V14.6667H9.91667ZM9.91667 12.6667C9.91667 12.3447 9.65545 12.0834 9.33335 12.0834V12.5834C9.37927 12.5834 9.41667 12.6208 9.41667 12.6667H9.91667ZM8.99999 14.0833H7.66667V14.5833H8.99999V14.0833ZM7.91667 14.3333V13H7.41667V14.3333H7.91667ZM7.66667 13.25H8.99999V12.75H7.66667V13.25ZM8.74999 13V14.3333H9.24999V13H8.74999ZM13.3334 12.0834H11.3334V12.5834H13.3334V12.0834ZM11.3334 12.0834C11.0113 12.0834 10.75 12.3446 10.75 12.6667H11.25C11.25 12.6208 11.2874 12.5834 11.3334 12.5834V12.0834ZM10.75 12.6667V14.6667H11.25V12.6667H10.75ZM10.75 14.6667C10.75 14.9887 11.0113 15.25 11.3334 15.25V14.75C11.2874 14.75 11.25 14.7126 11.25 14.6667H10.75ZM11.3334 15.25H13.3334V14.75H11.3334V15.25ZM13.3334 15.25C13.6554 15.25 13.9167 14.9887 13.9167 14.6667H13.4167C13.4167 14.7126 13.3793 14.75 13.3334 14.75V15.25ZM13.9167 14.6667V12.6667H13.4167V14.6667H13.9167ZM13.9167 12.6667C13.9167 12.3447 13.6555 12.0834 13.3334 12.0834V12.5834C13.3793 12.5834 13.4167 12.6208 13.4167 12.6667H13.9167ZM13 14.0833H11.6667V14.5833H13V14.0833ZM11.9167 14.3333V13H11.4167V14.3333H11.9167ZM11.6667 13.25H13V12.75H11.6667V13.25ZM12.75 13V14.3333H13.25V13H12.75ZM5.33337 16.0833H3.33337V16.5833H5.33337V16.0833ZM3.33337 16.0833C3.01134 16.0833 2.75004 16.3446 2.75004 16.6667H3.25004C3.25004 16.6207 3.28745 16.5833 3.33337 16.5833V16.0833ZM2.75004 16.6667V18.6667H3.25004V16.6667H2.75004ZM2.75004 18.6667C2.75004 18.9887 3.01127 19.25 3.33337 19.25V18.75C3.28745 18.75 3.25004 18.7126 3.25004 18.6667H2.75004ZM3.33337 19.25H5.33334V18.75H3.33337V19.25ZM5.33334 19.25C5.65538 19.25 5.9167 18.9888 5.9167 18.6667H5.4167C5.4167 18.7126 5.37931 18.75 5.33334 18.75V19.25ZM5.9167 18.6667V16.6667H5.4167V18.6667H5.9167ZM5.9167 16.6667C5.9167 16.3446 5.65547 16.0833 5.33337 16.0833V16.5833C5.3793 16.5833 5.4167 16.6207 5.4167 16.6667H5.9167ZM5.00001 18.0833H3.66669V18.5833H5.00001V18.0833ZM3.91669 18.3333V17H3.41669V18.3333H3.91669ZM3.66669 17.25H5.00001V16.75H3.66669V17.25ZM4.75001 17V18.3333H5.25001V17H4.75001ZM9.33335 16.0833H7.33334V16.5833H9.33335V16.0833ZM7.33334 16.0833C7.01132 16.0833 6.75002 16.3446 6.75002 16.6667H7.25002C7.25002 16.6207 7.28742 16.5833 7.33334 16.5833V16.0833ZM6.75002 16.6667V18.6667H7.25002V16.6667H6.75002ZM6.75002 18.6667C6.75002 18.9887 7.01124 19.25 7.33334 19.25V18.75C7.28742 18.75 7.25002 18.7126 7.25002 18.6667H6.75002ZM7.33334 19.25H9.33335V18.75H7.33334V19.25ZM9.33335 19.25C9.65543 19.25 9.91667 18.9888 9.91667 18.6667H9.41667C9.41667 18.7126 9.37929 18.75 9.33335 18.75V19.25ZM9.91667 18.6667V16.6667H9.41667V18.6667H9.91667ZM9.91667 16.6667C9.91667 16.3446 9.65545 16.0833 9.33335 16.0833V16.5833C9.37927 16.5833 9.41667 16.6207 9.41667 16.6667H9.91667ZM8.99999 18.0833H7.66667V18.5833H8.99999V18.0833ZM7.91667 18.3333V17H7.41667V18.3333H7.91667ZM7.66667 17.25H8.99999V16.75H7.66667V17.25ZM8.74999 17V18.3333H9.24999V17H8.74999ZM13.3334 16.0833H11.3334V16.5833H13.3334V16.0833ZM11.3334 16.0833C11.0113 16.0833 10.75 16.3446 10.75 16.6667H11.25C11.25 16.6207 11.2874 16.5833 11.3334 16.5833V16.0833ZM10.75 16.6667V18.6667H11.25V16.6667H10.75ZM10.75 18.6667C10.75 18.9887 11.0113 19.25 11.3334 19.25V18.75C11.2874 18.75 11.25 18.7126 11.25 18.6667H10.75ZM11.3334 19.25H13.3334V18.75H11.3334V19.25ZM13.3334 19.25C13.6554 19.25 13.9167 18.9888 13.9167 18.6667H13.4167C13.4167 18.7126 13.3793 18.75 13.3334 18.75V19.25ZM13.9167 18.6667V16.6667H13.4167V18.6667H13.9167ZM13.9167 16.6667C13.9167 16.3446 13.6555 16.0833 13.3334 16.0833V16.5833C13.3793 16.5833 13.4167 16.6207 13.4167 16.6667H13.9167ZM13 18.0833H11.6667V18.5833H13V18.0833ZM11.9167 18.3333V17H11.4167V18.3333H11.9167ZM11.6667 17.25H13V16.75H11.6667V17.25ZM12.75 17V18.3333H13.25V17H12.75ZM13.3334 2.75001H3.33337V3.25001H13.3334V2.75001ZM3.33337 2.75001C3.01134 2.75001 2.75004 3.01123 2.75004 3.33333H3.25004C3.25004 3.28741 3.28745 3.25001 3.33337 3.25001V2.75001ZM2.75004 3.33333V6.66666H3.25004V3.33333H2.75004ZM2.75004 6.66666C2.75004 6.98869 3.01127 7.24998 3.33337 7.24998V6.74998C3.28745 6.74998 3.25004 6.71258 3.25004 6.66666H2.75004ZM3.33337 7.24998H13.3334V6.74998H3.33337V7.24998ZM13.3334 7.24998C13.6554 7.24998 13.9167 6.98876 13.9167 6.66666H13.4167C13.4167 6.71258 13.3793 6.74998 13.3334 6.74998V7.24998ZM13.9167 6.66666V3.33333H13.4167V6.66666H13.9167ZM13.9167 3.33333C13.9167 3.0113 13.6555 2.75001 13.3334 2.75001V3.25001C13.3793 3.25001 13.4167 3.28741 13.4167 3.33333H13.9167ZM13 6.08334H3.66669V6.58334H13V6.08334ZM3.91669 6.33334V3.66665H3.41669V6.33334H3.91669ZM3.66669 3.91665H13V3.41665H3.66669V3.91665ZM12.75 3.66665V6.33334H13.25V3.66665H12.75Z" fill="black"/>
</svg>
